<svg viewBox="188 -82 143.841 180">
<path fill="#00aeef;" class="primary" d="M192.975,80.164h97.104c-1.766-3.622-4.4-9.055-8.281-17.089
	C265.468,29.278,263.19-8.317,263.19-8.317h-44.43l-1.14,16.329c-3.418,29.241-11.772,45.191-21.646,66.076
	C194.794,76.587,193.804,78.581,192.975,80.164L192.975,80.164z"/>
<path fill="#00aeef;" class="primary" d="M273.823-61.862c-0.38,3.038-3.417,45.949,1.518,80.126c4.266,29.536,15.337,53.68,19.492,61.899
	h0.635V-63.001H273.99C273.926-62.611,273.869-62.228,273.823-61.862L273.823-61.862z"/>
<path fill="#00aeef;" class="primary" d="M192.557,72.57c20.506-47.849,17.848-101.014,16.329-132.533c0,0,0-1.303-0.042-3.038H188V80.164
	h1.795L192.557,72.57L192.557,72.57z"/>
<path fill="#00aeef;" class="primary" d="M263.189-18.191c0,0,0-4.937,0.76-12.152c0.651-6.186,4.092-24.084,6.018-32.658h-57.225
	c5.354,18.617,6.018,44.81,6.018,44.81H263.189L263.189-18.191z"/>
<path fill="#3c93b3;" class="swoosh" d="M230.26-18.203h8.287c-4.689-10.959-9.473-24.259-9.677-33.417C228.49-68.709,239.883-82,239.883-82
	s-22.405,14.81-15.189,45.95C226.154-29.745,228.073-23.847,230.26-18.203L230.26-18.203z"/>
<path fill="#3c93b3;" class="swoosh" d="M243-8.329h-8.565c8.196,18.008,18.28,34.143,23.676,53.924c7.974,29.241,0,37.975-7.595,52.405
	c0,0,16.329-13.291,17.848-33.039c2.017-26.223-18.987-60.379-20.885-64.177C246.933-0.305,245.201-3.676,243-8.329L243-8.329z"/>
<path fill="#00aeef;" class="primary" d="M305.565,80.538c0.074-0.939,0.187-1.879,0.187-2.819c0-0.941-0.113-1.879-0.187-2.819h10.187
	c0.074-1.917,0.187-3.835,0.187-5.752c0-1.917-0.113-3.833-0.187-5.751h-10.187c0.074-0.939,0.187-1.88,0.187-2.82
	s-0.113-1.879-0.187-2.819h25.787c-0.074,0.94-0.188,1.879-0.188,2.819s0.113,1.881,0.188,2.82h-12.593
	c-0.076,1.918-0.188,3.834-0.188,5.751s0.112,3.835,0.188,5.752h12.593c-0.074,0.94-0.188,1.879-0.188,2.819
	s0.113,1.879,0.188,2.819H305.565L305.565,80.538z"/>
<path fill="#00aeef;" class="primary" d="M323.495,47.462c2.857,0.978,5.188,1.918,7.782,2.632c-0.037,0.601-0.113,1.165-0.113,1.766
	c0,0.601,0.076,1.203,0.113,1.805l-26.051-10.752c0.075-0.488,0.112-0.94,0.112-1.428s-0.037-0.94-0.112-1.429l26.126-10.487
	c-0.074,1.09-0.188,2.143-0.188,3.233c0,1.091,0.113,2.143,0.188,3.232c-2.781,0.865-5.337,1.653-7.857,2.669V47.462L323.495,47.462
	z M321.202,39.568l-8.759,3.345l8.759,3.533V39.568L321.202,39.568z"/>
<path fill="#00aeef;" class="primary" d="M305.565,3.064c0.074-0.527,0.187-1.052,0.187-1.579c0-0.525-0.113-1.09-0.187-1.616
	c10.112-1.165,18.306-2.03,25.787-3.309c-0.074,1.053-0.188,2.067-0.188,3.121c0,1.053,0.113,1.993,0.188,3.045
	c-5.976,0.3-11.727,1.052-17.518,1.616c5.751,2.857,11.504,5.676,17.33,8.345c-0.076,0.488-0.113,0.94,0,1.429
	c-5.189,2.405-11.014,5.376-16.916,8.232c6.615,0.865,11.841,1.465,17.104,1.579c-0.074,0.601-0.188,1.165-0.188,1.767
	s0.113,1.128,0.188,1.729c-7.556-1.353-16.277-2.555-25.787-3.834c0.074-0.526,0.187-1.016,0.187-1.542s-0.113-1.053-0.187-1.579
	c5.902-2.706,11.765-5.676,17.667-8.645C317.895,9.117,311.993,5.921,305.565,3.064L305.565,3.064z"/>
<path fill="#00aeef;" class="primary" d="M331.841-20.317c0,8.308-4.887,13.909-13.42,13.909c-7.481,0-13.533-5.451-13.533-14.811
	c0-10.713,7.555-13.871,13.383-13.909C325.6-35.166,331.841-29.528,331.841-20.317L331.841-20.317z M319.511-12.649
	c4.886,0,10.075-2.218,10.075-7.856c0-5.789-5.79-8.383-12.029-8.383c-4.85,0-10.413,2.255-10.413,7.895
	C307.143-15.769,311.091-12.649,319.511-12.649L319.511-12.649z"/>
<path fill="#00aeef;" class="primary" d="M305.565-39.934v-3.722c5.825-5.338,11.54-10.939,17.592-16.24h-17.592
	c0.074-0.488,0.112-1.015,0.112-1.503s-0.038-1.015-0.112-1.503h25.787l-0.037,3.195c-4.849,4.36-9.473,8.42-13.946,12.668
	l-4.286,4.097h18.194c-0.037,0.489-0.113,1.015-0.113,1.503c0,0.489,0.076,1.015,0.113,1.504L305.565-39.934L305.565-39.934z"/>
</svg>
