<svg version="1.1" id="Layer_1" xmlns="http://www.w3.org/2000/svg" xmlns:xlink="http://www.w3.org/1999/xlink" x="0px" y="0px"
	 viewBox="0 0 143.8 180" style="enable-background:new 0 0 143.8 180;" xml:space="preserve">
	<path style="fill:#009FDF;" d="M5,162.2h97.1c-1.8-3.6-4.4-9.1-8.3-17.1c-16.3-33.8-18.6-71.4-18.6-71.4H30.8L29.6,90
		c-3.4,29.2-11.8,45.2-21.6,66.1C6.8,158.6,5.8,160.6,5,162.2L5,162.2z"/>
	<path style="fill:#009FDF;" d="M85.8,20.1c-0.4,3-3.4,45.9,1.5,80.1c4.3,29.5,15.3,53.7,19.5,61.9h0.6V19H86C85.9,19.4,85.9,19.8,85.8,20.1
		L85.8,20.1z"/>
	<path style="fill:#009FDF;" d="M4.6,154.6C25.1,106.7,22.4,53.6,20.9,22c0,0,0-1.3,0-3H0v143.2h1.8L4.6,154.6L4.6,154.6z"/>
	<path style="fill:#009FDF;" d="M75.2,63.8c0,0,0-4.9,0.8-12.2c0.7-6.2,4.1-24.1,6-32.7H24.7c5.4,18.6,6,44.8,6,44.8L75.2,63.8L75.2,63.8z"/>
	<path style="fill:#6FBFDF;" d="M42.3,63.8h8.3c-4.7-11-9.5-24.3-9.7-33.4C40.5,13.3,51.9,0,51.9,0S29.5,14.8,36.7,46
		C38.2,52.3,40.1,58.2,42.3,63.8L42.3,63.8z"/>
	<path style="fill:#6FBFDF;" d="M55,73.7h-8.6c8.2,18,18.3,34.1,23.7,53.9c8,29.2,0,38-7.6,52.4c0,0,16.3-13.3,17.8-33
		c2-26.2-19-60.4-20.9-64.2C58.9,81.7,57.2,78.3,55,73.7L55,73.7z"/>
	<path style="fill:#009FDF;" d="M117.6,162.5c0.1-0.9,0.2-1.9,0.2-2.8c0-0.9-0.1-1.9-0.2-2.8h10.2c0.1-1.9,0.2-3.8,0.2-5.8
		c0-1.9-0.1-3.8-0.2-5.8h-10.2c0.1-0.9,0.2-1.9,0.2-2.8c0-0.9-0.1-1.9-0.2-2.8h25.8c-0.1,0.9-0.2,1.9-0.2,2.8c0,0.9,0.1,1.9,0.2,2.8
		h-12.6c-0.1,1.9-0.2,3.8-0.2,5.8c0,1.9,0.1,3.8,0.2,5.8h12.6c-0.1,0.9-0.2,1.9-0.2,2.8s0.1,1.9,0.2,2.8H117.6L117.6,162.5z"/>
	<path style="fill:#009FDF;" d="M135.5,129.5c2.9,1,5.2,1.9,7.8,2.6c0,0.6-0.1,1.2-0.1,1.8s0.1,1.2,0.1,1.8l-26.1-10.8c0.1-0.5,0.1-0.9,0.1-1.4
		s0-0.9-0.1-1.4l26.1-10.5c-0.1,1.1-0.2,2.1-0.2,3.2c0,1.1,0.1,2.1,0.2,3.2c-2.8,0.9-5.3,1.7-7.9,2.7L135.5,129.5L135.5,129.5z
		 M133.2,121.6l-8.8,3.3l8.8,3.5V121.6L133.2,121.6z"/>
	<path style="fill:#009FDF;" d="M117.6,85.1c0.1-0.5,0.2-1.1,0.2-1.6c0-0.5-0.1-1.1-0.2-1.6c10.1-1.2,18.3-2,25.8-3.3c-0.1,1.1-0.2,2.1-0.2,3.1
		c0,1.1,0.1,2,0.2,3c-6,0.3-11.7,1.1-17.5,1.6c5.8,2.9,11.5,5.7,17.3,8.3c-0.1,0.5-0.1,0.9,0,1.4c-5.2,2.4-11,5.4-16.9,8.2
		c6.6,0.9,11.8,1.5,17.1,1.6c-0.1,0.6-0.2,1.2-0.2,1.8s0.1,1.1,0.2,1.7c-7.6-1.4-16.3-2.6-25.8-3.8c0.1-0.5,0.2-1,0.2-1.5
		c0-0.5-0.1-1.1-0.2-1.6c5.9-2.7,11.8-5.7,17.7-8.6C129.9,91.1,124,87.9,117.6,85.1L117.6,85.1z"/>
	<path style="fill:#009FDF;" d="M143.8,61.7c0,8.3-4.9,13.9-13.4,13.9c-7.5,0-13.5-5.5-13.5-14.8c0-10.7,7.6-13.9,13.4-13.9
		C137.6,46.8,143.8,52.5,143.8,61.7L143.8,61.7z M131.5,69.4c4.9,0,10.1-2.2,10.1-7.9c0-5.8-5.8-8.4-12-8.4c-4.9,0-10.4,2.3-10.4,7.9
		C119.1,66.2,123.1,69.4,131.5,69.4L131.5,69.4z"/>
	<path style="fill:#009FDF;" d="M117.6,42.1v-3.7c5.8-5.3,11.5-10.9,17.6-16.2h-17.6c0.1-0.5,0.1-1,0.1-1.5s0-1-0.1-1.5h25.8l0,3.2
		c-4.8,4.4-9.5,8.4-13.9,12.7l-4.3,4.1h18.2c0,0.5-0.1,1-0.1,1.5c0,0.5,0.1,1,0.1,1.5L117.6,42.1L117.6,42.1z"/>
</svg>