<svg viewBox="188 -82 107.468 180">
  <path style="fill:#009FDF;" class="primary" d="M192.975,80.164h97.104c-1.766-3.622-4.4-9.055-8.281-17.089
    C265.468,29.278,263.19-8.317,263.19-8.317h-44.43l-1.14,16.329c-3.418,29.241-11.772,45.191-21.646,66.076
    C194.794,76.587,193.804,78.581,192.975,80.164L192.975,80.164z"/>
  <path style="fill:#009FDF;" class="primary" d="M273.823-61.862c-0.38,3.038-3.417,45.949,1.518,80.126c4.266,29.536,15.337,53.68,19.492,61.899
    h0.635V-63.001H273.99C273.926-62.611,273.869-62.228,273.823-61.862L273.823-61.862z"/>
  <path style="fill:#009FDF;" class="primary" d="M192.557,72.57c20.506-47.849,17.848-101.014,16.329-132.533c0,0,0-1.303-0.042-3.038H188V80.164
    h1.795L192.557,72.57L192.557,72.57z"/>
  <path style="fill:#009FDF;" class="primary" d="M263.189-18.191c0,0,0-4.937,0.76-12.152c0.651-6.186,4.092-24.084,6.018-32.658h-57.225
    c5.354,18.617,6.018,44.81,6.018,44.81H263.189L263.189-18.191z"/>
  <path style="fill:#6FBFDF;" class="secondary" d="M230.26-18.203h8.287c-4.689-10.959-9.473-24.259-9.677-33.417C228.49-68.709,239.883-82,239.883-82
    s-22.405,14.81-15.189,45.95C226.154-29.745,228.073-23.847,230.26-18.203L230.26-18.203z"/>
  <path style="fill:#6FBFDF;" class="secondary" d="M243-8.329h-8.565c8.196,18.008,18.28,34.143,23.676,53.924c7.974,29.241,0,37.975-7.595,52.405
    c0,0,16.329-13.291,17.848-33.039c2.017-26.223-18.987-60.379-20.885-64.177C246.933-0.305,245.201-3.676,243-8.329L243-8.329z"/>
</svg>
