<svg version="1.1" id="Layer_1" xmlns="http://www.w3.org/2000/svg" xmlns:xlink="http://www.w3.org/1999/xlink" x="0px" y="0px"
   viewBox="0 0 107.5 180" style="enable-background:new 0 0 107.5 180;" xml:space="preserve">
  <path style="fill:#009FDF;" d="M5,162.2h97.1c-1.8-3.6-4.4-9.1-8.3-17.1c-16.3-33.8-18.6-71.4-18.6-71.4H30.8L29.6,90
    c-3.4,29.2-11.8,45.2-21.6,66.1C6.8,158.6,5.8,160.6,5,162.2L5,162.2z"/>
  <path style="fill:#009FDF;" d="M85.8,20.1c-0.4,3-3.4,45.9,1.5,80.1c4.3,29.5,15.3,53.7,19.5,61.9h0.6V19H86C85.9,19.4,85.9,19.8,85.8,20.1
    L85.8,20.1z"/>
  <path style="fill:#009FDF;" d="M4.6,154.6C25.1,106.7,22.4,53.6,20.9,22c0,0,0-1.3,0-3H0v143.2h1.8L4.6,154.6L4.6,154.6z"/>
  <path style="fill:#009FDF;" d="M75.2,63.8c0,0,0-4.9,0.8-12.2c0.7-6.2,4.1-24.1,6-32.7H24.7c5.4,18.6,6,44.8,6,44.8L75.2,63.8L75.2,63.8z"/>
  <path style="fill:#6FBFDF;" d="M42.3,63.8h8.3c-4.7-11-9.5-24.3-9.7-33.4C40.5,13.3,51.9,0,51.9,0S29.5,14.8,36.7,46
    C38.2,52.3,40.1,58.2,42.3,63.8L42.3,63.8z"/>
  <path style="fill:#6FBFDF;" d="M55,73.7h-8.6c8.2,18,18.3,34.1,23.7,53.9c8,29.2,0,38-7.6,52.4c0,0,16.3-13.3,17.8-33
    c2-26.2-19-60.4-20.9-64.2C58.9,81.7,57.2,78.3,55,73.7L55,73.7z"/>
</svg>